<svg width="1920" height="892" viewBox="0 0 1920 892" fill="none" xmlns="http://www.w3.org/2000/svg">
<g clip-path="url(#clip0_9_49)">
<rect width="1920" height="892" fill="url(#paint0_linear_9_49)"/>
<g filter="url(#filter0_d_9_49)">
<circle cx="1605.46" cy="413.458" r="575.662" transform="rotate(-23.4458 1605.46 413.458)" fill="url(#paint1_linear_9_49)"/>
</g>
<g filter="url(#filter1_d_9_49)">
<rect x="1223.07" y="530" width="101.984" height="136.212" transform="rotate(75.8338 1223.07 530)" fill="#E1FFFF"/>
<rect x="1221.72" y="567.466" width="30" height="3.49262" rx="1.74631" transform="rotate(75.8338 1221.72 567.466)" fill="#D6D6D6"/>
<rect x="1205.31" y="550.981" width="75" height="3.49262" rx="1.74631" transform="rotate(75.8338 1205.31 550.981)" fill="#D6D6D6"/>
<rect x="1189.23" y="550.068" width="50" height="3.49262" rx="1.74631" transform="rotate(75.8338 1189.23 550.068)" fill="#D6D6D6"/>
<rect x="1144.53" y="561.351" width="50" height="3.49262" rx="1.74631" transform="rotate(75.8338 1144.53 561.351)" fill="#D6D6D6"/>
<g clip-path="url(#clip1_9_49)">
<rect x="1174.33" y="553.829" width="79.6317" height="3.49262" rx="1.74631" transform="rotate(75.8338 1174.33 553.829)" fill="#D6D6D6"/>
<rect x="1197.37" y="551.109" width="130" height="5" rx="2.5" transform="rotate(75.8338 1197.37 551.109)" fill="#D6D6D6"/>
</g>
<rect x="1129.63" y="565.112" width="75" height="3.49262" rx="1.74631" transform="rotate(75.8338 1129.63 565.112)" fill="#D6D6D6"/>
<rect x="1125.19" y="621.707" width="27.2424" height="3.49262" rx="1.74631" transform="rotate(75.8338 1125.19 621.707)" fill="#D6D6D6"/>
<rect x="1159.48" y="562.548" width="75" height="3.49262" rx="1.74631" transform="rotate(75.8338 1159.48 562.548)" fill="#D6D6D6"/>
</g>
<g filter="url(#filter2_d_9_49)">
<rect x="1218.07" y="534" width="101.984" height="136.212" transform="rotate(75.8338 1218.07 534)" fill="#E1FFFF"/>
<rect x="1216.72" y="571.466" width="30" height="3.49262" rx="1.74631" transform="rotate(75.8338 1216.72 571.466)" fill="#D6D6D6"/>
<rect x="1200.31" y="554.981" width="75" height="3.49262" rx="1.74631" transform="rotate(75.8338 1200.31 554.981)" fill="#D6D6D6"/>
<rect x="1184.23" y="554.068" width="50" height="3.49262" rx="1.74631" transform="rotate(75.8338 1184.23 554.068)" fill="#D6D6D6"/>
<rect x="1139.53" y="565.351" width="50" height="3.49262" rx="1.74631" transform="rotate(75.8338 1139.53 565.351)" fill="#D6D6D6"/>
<g clip-path="url(#clip2_9_49)">
<rect x="1169.33" y="557.829" width="79.6317" height="3.49262" rx="1.74631" transform="rotate(75.8338 1169.33 557.829)" fill="#D6D6D6"/>
<rect x="1192.37" y="555.109" width="130" height="5" rx="2.5" transform="rotate(75.8338 1192.37 555.109)" fill="#D6D6D6"/>
</g>
<rect x="1124.63" y="569.112" width="75" height="3.49262" rx="1.74631" transform="rotate(75.8338 1124.63 569.112)" fill="#D6D6D6"/>
<rect x="1120.19" y="625.707" width="27.2424" height="3.49262" rx="1.74631" transform="rotate(75.8338 1120.19 625.707)" fill="#D6D6D6"/>
<rect x="1154.48" y="566.548" width="75" height="3.49262" rx="1.74631" transform="rotate(75.8338 1154.48 566.548)" fill="#D6D6D6"/>
</g>
<g filter="url(#filter3_d_9_49)">
<rect x="1208.49" y="311.487" width="101.984" height="136.212" transform="rotate(91.9664 1208.49 311.487)" fill="#E1FFFF"/>
<rect x="1196.78" y="347.102" width="30" height="3.49262" rx="1.74631" transform="rotate(91.9664 1196.78 347.102)" fill="#D6D6D6"/>
<rect x="1185.6" y="326.707" width="75" height="3.49262" rx="1.74631" transform="rotate(91.9664 1185.6 326.707)" fill="#D6D6D6"/>
<rect x="1170.41" y="321.362" width="50" height="3.49262" rx="1.74631" transform="rotate(91.9664 1170.41 321.362)" fill="#D6D6D6"/>
<rect x="1124.33" y="319.78" width="79.6317" height="3.49262" rx="1.74631" transform="rotate(91.9664 1124.33 319.78)" fill="#D6D6D6"/>
<g clip-path="url(#clip3_9_49)">
<rect x="1155.05" y="320.835" width="79.6317" height="3.49262" rx="1.74631" transform="rotate(91.9664 1155.05 320.835)" fill="#D6D6D6"/>
</g>
<rect x="1108.98" y="319.253" width="75" height="3.49262" rx="1.74631" transform="rotate(91.9664 1108.98 319.253)" fill="#D6D6D6"/>
<rect x="1088.98" y="372.384" width="27.2424" height="3.49262" rx="1.74631" transform="rotate(91.9664 1088.98 372.384)" fill="#D6D6D6"/>
<rect x="1138.37" y="325.085" width="75" height="3.49262" rx="1.74631" transform="rotate(91.9664 1138.37 325.085)" fill="#D6D6D6"/>
</g>
<g filter="url(#filter4_d_9_49)">
<rect x="1206.6" y="301.567" width="101.984" height="136.212" transform="rotate(96.986 1206.6 301.567)" fill="#E1FFFF"/>
<rect x="1191.83" y="336.022" width="30" height="3.49262" rx="1.74631" transform="rotate(96.986 1191.83 336.022)" fill="#D6D6D6"/>
<rect x="1182.47" y="314.726" width="75" height="3.49262" rx="1.74631" transform="rotate(96.986 1182.47 314.726)" fill="#D6D6D6"/>
<rect x="1167.81" y="308.073" width="75" height="3.49262" rx="1.74631" transform="rotate(96.986 1167.81 308.073)" fill="#D6D6D6"/>
<rect x="1122.05" y="302.465" width="50" height="3.49262" rx="1.74631" transform="rotate(96.986 1122.05 302.465)" fill="#D6D6D6"/>
<g clip-path="url(#clip4_9_49)">
<rect x="1152.55" y="306.204" width="79.6317" height="3.49262" rx="1.74631" transform="rotate(96.986 1152.55 306.204)" fill="#D6D6D6"/>
</g>
<rect x="1106.79" y="300.596" width="75" height="3.49262" rx="1.74631" transform="rotate(96.986 1106.79 300.596)" fill="#D6D6D6"/>
<rect x="1082.22" y="351.774" width="27.2424" height="3.49262" rx="1.74631" transform="rotate(96.986 1082.22 351.774)" fill="#D6D6D6"/>
<rect x="1135.56" y="308.978" width="75" height="3.49262" rx="1.74631" transform="rotate(96.986 1135.56 308.978)" fill="#D6D6D6"/>
</g>
<g filter="url(#filter5_d_9_49)">
<rect x="1526.93" y="830.704" width="101.984" height="136.212" transform="rotate(-9.75359 1526.93 830.704)" fill="#E1FFFF"/>
<rect x="1564.19" y="834.932" width="30" height="3.49262" rx="1.74631" transform="rotate(-9.75359 1564.19 834.932)" fill="#D6D6D6"/>
<rect x="1546.49" y="850.023" width="75" height="3.49262" rx="1.74631" transform="rotate(-9.75359 1546.49 850.023)" fill="#D6D6D6"/>
<rect x="1544.34" y="865.985" width="50" height="3.49262" rx="1.74631" transform="rotate(-9.75359 1544.34 865.985)" fill="#D6D6D6"/>
<g clip-path="url(#clip5_9_49)">
<rect x="1546.94" y="881.131" width="79.6317" height="3.49262" rx="1.74631" transform="rotate(-9.75359 1546.94 881.131)" fill="#D6D6D6"/>
</g>
<rect x="1554.49" y="896.605" width="75" height="3.49262" rx="1.74631" transform="rotate(-9.75359 1554.49 896.605)" fill="#D6D6D6"/>
</g>
<g filter="url(#filter6_d_9_49)">
<rect x="1517.6" y="834.566" width="101.984" height="136.212" transform="rotate(-4.73405 1517.6 834.566)" fill="#E1FFFF"/>
<rect x="1554.34" y="842.037" width="30" height="3.49262" rx="1.74631" transform="rotate(-4.73405 1554.34 842.037)" fill="#D6D6D6"/>
<rect x="1535.39" y="855.522" width="75" height="3.49262" rx="1.74631" transform="rotate(-4.73405 1535.39 855.522)" fill="#D6D6D6"/>
<rect x="1531.86" y="871.235" width="75" height="3.49262" rx="1.74631" transform="rotate(-4.73405 1531.86 871.235)" fill="#D6D6D6"/>
<g clip-path="url(#clip6_9_49)">
<rect x="1533.12" y="886.55" width="79.6317" height="3.49262" rx="1.74631" transform="rotate(-4.73405 1533.12 886.55)" fill="#D6D6D6"/>
</g>
</g>
<g filter="url(#filter7_d_9_49)">
<rect x="1361.22" y="730.821" width="101.984" height="136.212" transform="rotate(65.4851 1361.22 730.821)" fill="#E1FFFF"/>
<rect x="1366.62" y="767.92" width="30" height="3.49262" rx="1.74631" transform="rotate(65.4851 1366.62 767.92)" fill="#D6D6D6"/>
<rect x="1347.52" y="754.651" width="75" height="3.49262" rx="1.74631" transform="rotate(65.4851 1347.52 754.651)" fill="#D6D6D6"/>
<rect x="1331.53" y="756.641" width="50" height="3.49262" rx="1.74631" transform="rotate(65.4851 1331.53 756.641)" fill="#D6D6D6"/>
<rect x="1289.59" y="775.771" width="50" height="3.49262" rx="1.74631" transform="rotate(65.4851 1289.59 775.771)" fill="#D6D6D6"/>
<g clip-path="url(#clip7_9_49)">
<rect x="1317.55" y="763.018" width="79.6317" height="3.49262" rx="1.74631" transform="rotate(65.4851 1317.55 763.018)" fill="#D6D6D6"/>
<rect x="1339.72" y="756.204" width="130" height="5" rx="2.5" transform="rotate(65.4851 1339.72 756.204)" fill="#D6D6D6"/>
</g>
<rect x="1275.6" y="782.147" width="75" height="3.49262" rx="1.74631" transform="rotate(65.4851 1275.6 782.147)" fill="#D6D6D6"/>
<rect x="1281.4" y="838.62" width="27.2424" height="3.49262" rx="1.74631" transform="rotate(65.4851 1281.4 838.62)" fill="#D6D6D6"/>
<rect x="1304.51" y="774.262" width="75" height="3.49262" rx="1.74631" transform="rotate(65.4851 1304.51 774.262)" fill="#D6D6D6"/>
</g>
<g filter="url(#filter8_d_9_49)">
<rect x="1335.9" y="727.312" width="101.984" height="136.212" transform="rotate(45.5526 1335.9 727.312)" fill="#E1FFFF"/>
<rect x="1344.07" y="750.607" width="57.2789" height="3.49262" rx="1.74631" transform="rotate(45.5526 1344.07 750.607)" fill="#D6D6D6"/>
<rect x="1327.77" y="750.944" width="79.6317" height="3.49262" rx="1.74631" transform="rotate(45.5526 1327.77 750.944)" fill="#D6D6D6"/>
<rect x="1316.8" y="761.705" width="79.6317" height="3.49262" rx="1.74631" transform="rotate(45.5526 1316.8 761.705)" fill="#D6D6D6"/>
<rect x="1283.88" y="793.988" width="79.6317" height="3.49262" rx="1.74631" transform="rotate(45.5526 1283.88 793.988)" fill="#D6D6D6"/>
<g clip-path="url(#clip8_9_49)">
<rect x="1305.82" y="772.466" width="79.6317" height="3.49262" rx="1.74631" transform="rotate(45.5526 1305.82 772.466)" fill="#D6D6D6"/>
<rect x="1324.34" y="758.502" width="130" height="5" rx="2.5" transform="rotate(45.5526 1324.34 758.502)" fill="#D6D6D6"/>
</g>
<rect x="1272.91" y="804.749" width="79.6317" height="3.49262" rx="1.74631" transform="rotate(45.5526 1272.91 804.749)" fill="#D6D6D6"/>
<rect x="1297.61" y="855.865" width="27.2424" height="3.49262" rx="1.74631" transform="rotate(45.5526 1297.61 855.865)" fill="#D6D6D6"/>
<rect x="1294.85" y="783.227" width="79.6317" height="3.49262" rx="1.74631" transform="rotate(45.5526 1294.85 783.227)" fill="#D6D6D6"/>
</g>
<g filter="url(#filter9_bd_9_49)">
<rect x="1320.09" y="96.8917" width="101.984" height="136.212" transform="rotate(120.382 1320.09 96.8917)" fill="#E1FFFF"/>
<rect x="1299.74" y="110.875" width="57.2789" height="3.49262" rx="1.74631" transform="rotate(120.382 1299.74 110.875)" fill="#D6D6D6"/>
<rect x="1295.15" y="95.2279" width="79.6317" height="3.49262" rx="1.74631" transform="rotate(120.382 1295.15 95.2279)" fill="#D6D6D6"/>
<rect x="1281.89" y="87.4556" width="79.6317" height="3.49262" rx="1.74631" transform="rotate(120.382 1281.89 87.4556)" fill="#D6D6D6"/>
<rect x="1242.12" y="64.1383" width="79.6317" height="3.49262" rx="1.74631" transform="rotate(120.382 1242.12 64.1383)" fill="#D6D6D6"/>
<g clip-path="url(#clip9_9_49)">
<rect x="1268.64" y="79.6832" width="79.6317" height="3.49262" rx="1.74631" transform="rotate(120.382 1268.64 79.6832)" fill="#D6D6D6"/>
<rect x="1286.96" y="93.9038" width="130" height="5" rx="2.5" transform="rotate(120.382 1286.96 93.9038)" fill="#D6D6D6"/>
</g>
<rect x="1228.87" y="56.3659" width="79.6317" height="3.49262" rx="1.74631" transform="rotate(120.382 1228.87 56.3659)" fill="#D6D6D6"/>
<rect x="1185.99" y="93.5802" width="27.2424" height="3.49262" rx="1.74631" transform="rotate(120.382 1185.99 93.5802)" fill="#D6D6D6"/>
<rect x="1255.38" y="71.9108" width="79.6317" height="3.49262" rx="1.74631" transform="rotate(120.382 1255.38 71.9108)" fill="#D6D6D6"/>
</g>
<g filter="url(#filter10_bd_9_49)">
<rect x="1318.38" y="121.921" width="101.984" height="136.212" transform="rotate(131.195 1318.38 121.921)" fill="#E1FFFF"/>
<rect x="1295.77" y="131.84" width="57.2789" height="3.49262" rx="1.74631" transform="rotate(131.195 1295.77 131.84)" fill="#D6D6D6"/>
<rect x="1294.2" y="115.609" width="79.6317" height="3.49262" rx="1.74631" transform="rotate(131.195 1294.2 115.609)" fill="#D6D6D6"/>
<rect x="1282.63" y="105.488" width="79.6317" height="3.49262" rx="1.74631" transform="rotate(131.195 1282.63 105.488)" fill="#D6D6D6"/>
<rect x="1247.94" y="75.1235" width="79.6317" height="3.49262" rx="1.74631" transform="rotate(131.195 1247.94 75.1235)" fill="#D6D6D6"/>
<g clip-path="url(#clip10_9_49)">
<rect x="1271.07" y="95.3663" width="79.6317" height="3.49262" rx="1.74631" transform="rotate(131.195 1271.07 95.3663)" fill="#D6D6D6"/>
<rect x="1286.4" y="112.772" width="130" height="5" rx="2.5" transform="rotate(131.195 1286.4 112.772)" fill="#D6D6D6"/>
</g>
<rect x="1236.38" y="65.0021" width="79.6317" height="3.49262" rx="1.74631" transform="rotate(131.195 1236.38 65.0021)" fill="#D6D6D6"/>
<rect x="1187.29" y="93.5133" width="27.2424" height="3.49262" rx="1.74631" transform="rotate(131.195 1187.29 93.5133)" fill="#D6D6D6"/>
<rect x="1259.5" y="85.2449" width="79.6317" height="3.49262" rx="1.74631" transform="rotate(131.195 1259.5 85.2449)" fill="#D6D6D6"/>
</g>
<g filter="url(#filter11_bd_9_49)">
<rect x="1739.98" y="774.14" width="101.984" height="136.212" transform="rotate(-31.9586 1739.98 774.14)" fill="#E1FFFF"/>
<rect x="1764.49" y="771.199" width="57.2789" height="3.49262" rx="1.74631" transform="rotate(-31.9586 1764.49 771.199)" fill="#D6D6D6"/>
<rect x="1761.29" y="787.189" width="79.6317" height="3.49262" rx="1.74631" transform="rotate(-31.9586 1761.29 787.189)" fill="#D6D6D6"/>
<rect x="1769.43" y="800.228" width="79.6317" height="3.49262" rx="1.74631" transform="rotate(-31.9586 1769.43 800.228)" fill="#D6D6D6"/>
<rect x="1793.83" y="839.342" width="79.6317" height="3.49262" rx="1.74631" transform="rotate(-31.9586 1793.83 839.342)" fill="#D6D6D6"/>
<g clip-path="url(#clip11_9_49)">
<rect x="1777.56" y="813.266" width="79.6317" height="3.49262" rx="1.74631" transform="rotate(-31.9586 1777.56 813.266)" fill="#D6D6D6"/>
<rect x="1767.93" y="792.164" width="130" height="5" rx="2.5" transform="rotate(-31.9586 1767.93 792.164)" fill="#D6D6D6"/>
</g>
<rect x="1801.96" y="852.381" width="79.6317" height="3.49262" rx="1.74631" transform="rotate(-31.9586 1801.96 852.381)" fill="#D6D6D6"/>
<rect x="1857.21" y="839.32" width="27.2424" height="3.49262" rx="1.74631" transform="rotate(-31.9586 1857.21 839.32)" fill="#D6D6D6"/>
<rect x="1785.7" y="826.304" width="79.6317" height="3.49262" rx="1.74631" transform="rotate(-31.9586 1785.7 826.304)" fill="#D6D6D6"/>
</g>
<g filter="url(#filter12_bd_9_49)">
<rect x="1753.11" y="752.765" width="101.984" height="136.212" transform="rotate(-21.1462 1753.11 752.765)" fill="#E1FFFF"/>
<rect x="1777.74" y="754.474" width="57.2789" height="3.49262" rx="1.74631" transform="rotate(-21.1462 1777.74 754.474)" fill="#D6D6D6"/>
<rect x="1771.6" y="769.581" width="79.6317" height="3.49262" rx="1.74631" transform="rotate(-21.1462 1771.6 769.581)" fill="#D6D6D6"/>
<rect x="1777.15" y="783.914" width="79.6317" height="3.49262" rx="1.74631" transform="rotate(-21.1462 1777.15 783.914)" fill="#D6D6D6"/>
<rect x="1793.78" y="826.912" width="79.6317" height="3.49262" rx="1.74631" transform="rotate(-21.1462 1793.78 826.912)" fill="#D6D6D6"/>
<g clip-path="url(#clip12_9_49)">
<rect x="1782.69" y="798.246" width="79.6317" height="3.49262" rx="1.74631" transform="rotate(-21.1462 1782.69 798.246)" fill="#D6D6D6"/>
<rect x="1777.19" y="775.713" width="130" height="5" rx="2.5" transform="rotate(-21.1462 1777.19 775.713)" fill="#D6D6D6"/>
</g>
<rect x="1799.32" y="841.245" width="79.6317" height="3.49262" rx="1.74631" transform="rotate(-21.1462 1799.32 841.245)" fill="#D6D6D6"/>
<rect x="1856.04" y="838.78" width="27.2424" height="3.49262" rx="1.74631" transform="rotate(-21.1462 1856.04 838.78)" fill="#D6D6D6"/>
<rect x="1788.23" y="812.579" width="79.6317" height="3.49262" rx="1.74631" transform="rotate(-21.1462 1788.23 812.579)" fill="#D6D6D6"/>
</g>
</g>
<defs>
<filter id="filter0_d_9_49" x="1027.65" y="-162.35" width="1159.62" height="1159.62" filterUnits="userSpaceOnUse" color-interpolation-filters="sRGB">
<feFlood flood-opacity="0" result="BackgroundImageFix"/>
<feColorMatrix in="SourceAlpha" type="matrix" values="0 0 0 0 0 0 0 0 0 0 0 0 0 0 0 0 0 0 127 0" result="hardAlpha"/>
<feOffset dx="2" dy="4"/>
<feGaussianBlur stdDeviation="2"/>
<feComposite in2="hardAlpha" operator="out"/>
<feColorMatrix type="matrix" values="0 0 0 0 0 0 0 0 0 0 0 0 0 0 0 0 0 0 0.25 0"/>
<feBlend mode="normal" in2="BackgroundImageFix" result="effect1_dropShadow_9_49"/>
<feBlend mode="normal" in="SourceGraphic" in2="effect1_dropShadow_9_49" result="shape"/>
</filter>
<filter id="filter1_d_9_49" x="1082" y="522" width="177.029" height="152.219" filterUnits="userSpaceOnUse" color-interpolation-filters="sRGB">
<feFlood flood-opacity="0" result="BackgroundImageFix"/>
<feColorMatrix in="SourceAlpha" type="matrix" values="0 0 0 0 0 0 0 0 0 0 0 0 0 0 0 0 0 0 127 0" result="hardAlpha"/>
<feOffset dx="1" dy="2"/>
<feGaussianBlur stdDeviation="5"/>
<feComposite in2="hardAlpha" operator="out"/>
<feColorMatrix type="matrix" values="0 0 0 0 0 0 0 0 0 0 0 0 0 0 0 0 0 0 0.25 0"/>
<feBlend mode="normal" in2="BackgroundImageFix" result="effect1_dropShadow_9_49"/>
<feBlend mode="normal" in="SourceGraphic" in2="effect1_dropShadow_9_49" result="shape"/>
</filter>
<filter id="filter2_d_9_49" x="1077" y="526" width="177.029" height="152.219" filterUnits="userSpaceOnUse" color-interpolation-filters="sRGB">
<feFlood flood-opacity="0" result="BackgroundImageFix"/>
<feColorMatrix in="SourceAlpha" type="matrix" values="0 0 0 0 0 0 0 0 0 0 0 0 0 0 0 0 0 0 127 0" result="hardAlpha"/>
<feOffset dx="1" dy="2"/>
<feGaussianBlur stdDeviation="5"/>
<feComposite in2="hardAlpha" operator="out"/>
<feColorMatrix type="matrix" values="0 0 0 0 0 0 0 0 0 0 0 0 0 0 0 0 0 0 0.25 0"/>
<feBlend mode="normal" in2="BackgroundImageFix" result="effect1_dropShadow_9_49"/>
<feBlend mode="normal" in="SourceGraphic" in2="effect1_dropShadow_9_49" result="shape"/>
</filter>
<filter id="filter3_d_9_49" x="1059.86" y="298.812" width="159.631" height="126.598" filterUnits="userSpaceOnUse" color-interpolation-filters="sRGB">
<feFlood flood-opacity="0" result="BackgroundImageFix"/>
<feColorMatrix in="SourceAlpha" type="matrix" values="0 0 0 0 0 0 0 0 0 0 0 0 0 0 0 0 0 0 127 0" result="hardAlpha"/>
<feOffset dx="1" dy="2"/>
<feGaussianBlur stdDeviation="5"/>
<feComposite in2="hardAlpha" operator="out"/>
<feColorMatrix type="matrix" values="0 0 0 0 0 0 0 0 0 0 0 0 0 0 0 0 0 0 0.25 0"/>
<feBlend mode="normal" in2="BackgroundImageFix" result="effect1_dropShadow_9_49"/>
<feBlend mode="normal" in="SourceGraphic" in2="effect1_dropShadow_9_49" result="shape"/>
</filter>
<filter id="filter4_d_9_49" x="1050" y="277" width="167.605" height="137.794" filterUnits="userSpaceOnUse" color-interpolation-filters="sRGB">
<feFlood flood-opacity="0" result="BackgroundImageFix"/>
<feColorMatrix in="SourceAlpha" type="matrix" values="0 0 0 0 0 0 0 0 0 0 0 0 0 0 0 0 0 0 127 0" result="hardAlpha"/>
<feOffset dx="1" dy="2"/>
<feGaussianBlur stdDeviation="5"/>
<feComposite in2="hardAlpha" operator="out"/>
<feColorMatrix type="matrix" values="0 0 0 0 0 0 0 0 0 0 0 0 0 0 0 0 0 0 0.25 0"/>
<feBlend mode="normal" in2="BackgroundImageFix" result="effect1_dropShadow_9_49"/>
<feBlend mode="normal" in="SourceGraphic" in2="effect1_dropShadow_9_49" result="shape"/>
</filter>
<filter id="filter5_d_9_49" x="1517.93" y="805.427" width="143.586" height="171.521" filterUnits="userSpaceOnUse" color-interpolation-filters="sRGB">
<feFlood flood-opacity="0" result="BackgroundImageFix"/>
<feColorMatrix in="SourceAlpha" type="matrix" values="0 0 0 0 0 0 0 0 0 0 0 0 0 0 0 0 0 0 127 0" result="hardAlpha"/>
<feOffset dx="1" dy="2"/>
<feGaussianBlur stdDeviation="5"/>
<feComposite in2="hardAlpha" operator="out"/>
<feColorMatrix type="matrix" values="0 0 0 0 0 0 0 0 0 0 0 0 0 0 0 0 0 0 0.25 0"/>
<feBlend mode="normal" in2="BackgroundImageFix" result="effect1_dropShadow_9_49"/>
<feBlend mode="normal" in="SourceGraphic" in2="effect1_dropShadow_9_49" result="shape"/>
</filter>
<filter id="filter6_d_9_49" x="1508.6" y="818.149" width="132.878" height="164.164" filterUnits="userSpaceOnUse" color-interpolation-filters="sRGB">
<feFlood flood-opacity="0" result="BackgroundImageFix"/>
<feColorMatrix in="SourceAlpha" type="matrix" values="0 0 0 0 0 0 0 0 0 0 0 0 0 0 0 0 0 0 127 0" result="hardAlpha"/>
<feOffset dx="1" dy="2"/>
<feGaussianBlur stdDeviation="5"/>
<feComposite in2="hardAlpha" operator="out"/>
<feColorMatrix type="matrix" values="0 0 0 0 0 0 0 0 0 0 0 0 0 0 0 0 0 0 0.25 0"/>
<feBlend mode="normal" in2="BackgroundImageFix" result="effect1_dropShadow_9_49"/>
<feBlend mode="normal" in="SourceGraphic" in2="effect1_dropShadow_9_49" result="shape"/>
</filter>
<filter id="filter7_d_9_49" x="1228.28" y="722.821" width="186.249" height="169.309" filterUnits="userSpaceOnUse" color-interpolation-filters="sRGB">
<feFlood flood-opacity="0" result="BackgroundImageFix"/>
<feColorMatrix in="SourceAlpha" type="matrix" values="0 0 0 0 0 0 0 0 0 0 0 0 0 0 0 0 0 0 127 0" result="hardAlpha"/>
<feOffset dx="1" dy="2"/>
<feGaussianBlur stdDeviation="5"/>
<feComposite in2="hardAlpha" operator="out"/>
<feColorMatrix type="matrix" values="0 0 0 0 0 0 0 0 0 0 0 0 0 0 0 0 0 0 0.25 0"/>
<feBlend mode="normal" in2="BackgroundImageFix" result="effect1_dropShadow_9_49"/>
<feBlend mode="normal" in="SourceGraphic" in2="effect1_dropShadow_9_49" result="shape"/>
</filter>
<filter id="filter8_d_9_49" x="1229.66" y="719.312" width="188.656" height="188.189" filterUnits="userSpaceOnUse" color-interpolation-filters="sRGB">
<feFlood flood-opacity="0" result="BackgroundImageFix"/>
<feColorMatrix in="SourceAlpha" type="matrix" values="0 0 0 0 0 0 0 0 0 0 0 0 0 0 0 0 0 0 127 0" result="hardAlpha"/>
<feOffset dx="1" dy="2"/>
<feGaussianBlur stdDeviation="5"/>
<feComposite in2="hardAlpha" operator="out"/>
<feColorMatrix type="matrix" values="0 0 0 0 0 0 0 0 0 0 0 0 0 0 0 0 0 0 0.25 0"/>
<feBlend mode="normal" in2="BackgroundImageFix" result="effect1_dropShadow_9_49"/>
<feBlend mode="normal" in="SourceGraphic" in2="effect1_dropShadow_9_49" result="shape"/>
</filter>
<filter id="filter9_bd_9_49" x="1141" y="18" width="189.086" height="176.871" filterUnits="userSpaceOnUse" color-interpolation-filters="sRGB">
<feFlood flood-opacity="0" result="BackgroundImageFix"/>
<feGaussianBlur in="BackgroundImage" stdDeviation="5"/>
<feComposite in2="SourceAlpha" operator="in" result="effect1_backgroundBlur_9_49"/>
<feColorMatrix in="SourceAlpha" type="matrix" values="0 0 0 0 0 0 0 0 0 0 0 0 0 0 0 0 0 0 127 0" result="hardAlpha"/>
<feOffset dy="4"/>
<feGaussianBlur stdDeviation="2"/>
<feComposite in2="hardAlpha" operator="out"/>
<feColorMatrix type="matrix" values="0 0 0 0 0 0 0 0 0 0 0 0 0 0 0 0 0 0 0.25 0"/>
<feBlend mode="normal" in2="effect1_backgroundBlur_9_49" result="effect2_dropShadow_9_49"/>
<feBlend mode="normal" in="SourceGraphic" in2="effect2_dropShadow_9_49" result="shape"/>
</filter>
<filter id="filter10_bd_9_49" x="1138.71" y="22.2089" width="189.665" height="186.453" filterUnits="userSpaceOnUse" color-interpolation-filters="sRGB">
<feFlood flood-opacity="0" result="BackgroundImageFix"/>
<feGaussianBlur in="BackgroundImage" stdDeviation="5"/>
<feComposite in2="SourceAlpha" operator="in" result="effect1_backgroundBlur_9_49"/>
<feColorMatrix in="SourceAlpha" type="matrix" values="0 0 0 0 0 0 0 0 0 0 0 0 0 0 0 0 0 0 127 0" result="hardAlpha"/>
<feOffset dy="4"/>
<feGaussianBlur stdDeviation="2"/>
<feComposite in2="hardAlpha" operator="out"/>
<feColorMatrix type="matrix" values="0 0 0 0 0 0 0 0 0 0 0 0 0 0 0 0 0 0 0.25 0"/>
<feBlend mode="normal" in2="effect1_backgroundBlur_9_49" result="effect2_dropShadow_9_49"/>
<feBlend mode="normal" in="SourceGraphic" in2="effect2_dropShadow_9_49" result="shape"/>
</filter>
<filter id="filter11_bd_9_49" x="1729.98" y="710.159" width="178.625" height="189.547" filterUnits="userSpaceOnUse" color-interpolation-filters="sRGB">
<feFlood flood-opacity="0" result="BackgroundImageFix"/>
<feGaussianBlur in="BackgroundImage" stdDeviation="5"/>
<feComposite in2="SourceAlpha" operator="in" result="effect1_backgroundBlur_9_49"/>
<feColorMatrix in="SourceAlpha" type="matrix" values="0 0 0 0 0 0 0 0 0 0 0 0 0 0 0 0 0 0 127 0" result="hardAlpha"/>
<feOffset dy="4"/>
<feGaussianBlur stdDeviation="2"/>
<feComposite in2="hardAlpha" operator="out"/>
<feColorMatrix type="matrix" values="0 0 0 0 0 0 0 0 0 0 0 0 0 0 0 0 0 0 0.25 0"/>
<feBlend mode="normal" in2="effect1_backgroundBlur_9_49" result="effect2_dropShadow_9_49"/>
<feBlend mode="normal" in="SourceGraphic" in2="effect2_dropShadow_9_49" result="shape"/>
</filter>
<filter id="filter12_bd_9_49" x="1743.11" y="705.975" width="164.255" height="183.831" filterUnits="userSpaceOnUse" color-interpolation-filters="sRGB">
<feFlood flood-opacity="0" result="BackgroundImageFix"/>
<feGaussianBlur in="BackgroundImage" stdDeviation="5"/>
<feComposite in2="SourceAlpha" operator="in" result="effect1_backgroundBlur_9_49"/>
<feColorMatrix in="SourceAlpha" type="matrix" values="0 0 0 0 0 0 0 0 0 0 0 0 0 0 0 0 0 0 127 0" result="hardAlpha"/>
<feOffset dy="4"/>
<feGaussianBlur stdDeviation="2"/>
<feComposite in2="hardAlpha" operator="out"/>
<feColorMatrix type="matrix" values="0 0 0 0 0 0 0 0 0 0 0 0 0 0 0 0 0 0 0.25 0"/>
<feBlend mode="normal" in2="effect1_backgroundBlur_9_49" result="effect2_dropShadow_9_49"/>
<feBlend mode="normal" in="SourceGraphic" in2="effect2_dropShadow_9_49" result="shape"/>
</filter>
<linearGradient id="paint0_linear_9_49" x1="1935" y1="5.67832e-05" x2="0.000131531" y2="892" gradientUnits="userSpaceOnUse">
<stop stop-color="white" stop-opacity="0.864583"/>
<stop offset="0.151042" stop-color="#DCE9EF" stop-opacity="0.888641"/>
<stop offset="0.239583" stop-color="#B4E6FD" stop-opacity="0.73"/>
<stop offset="0.395833" stop-color="#84CCE3" stop-opacity="0.47"/>
<stop offset="0.526042" stop-color="#99D6E3" stop-opacity="0.65"/>
<stop offset="0.645833" stop-color="#69B5C6" stop-opacity="0.56"/>
<stop offset="0.817708" stop-color="#59B2CE" stop-opacity="0.83"/>
<stop offset="1" stop-color="#00A4EA"/>
</linearGradient>
<linearGradient id="paint1_linear_9_49" x1="1605.46" y1="-162.204" x2="1605.46" y2="989.119" gradientUnits="userSpaceOnUse">
<stop stop-color="#48C799"/>
<stop offset="1" stop-color="#407DAA"/>
</linearGradient>
<clipPath id="clip0_9_49">
<rect width="1920" height="892" fill="white"/>
</clipPath>
<clipPath id="clip1_9_49">
<rect x="1174.33" y="553.829" width="79.6317" height="3.49262" rx="1.74631" transform="rotate(75.8338 1174.33 553.829)" fill="white"/>
</clipPath>
<clipPath id="clip2_9_49">
<rect x="1169.33" y="557.829" width="79.6317" height="3.49262" rx="1.74631" transform="rotate(75.8338 1169.33 557.829)" fill="white"/>
</clipPath>
<clipPath id="clip3_9_49">
<rect x="1155.05" y="320.835" width="79.6317" height="3.49262" rx="1.74631" transform="rotate(91.9664 1155.05 320.835)" fill="white"/>
</clipPath>
<clipPath id="clip4_9_49">
<rect x="1152.55" y="306.204" width="79.6317" height="3.49262" rx="1.74631" transform="rotate(96.986 1152.55 306.204)" fill="white"/>
</clipPath>
<clipPath id="clip5_9_49">
<rect x="1546.94" y="881.131" width="79.6317" height="3.49262" rx="1.74631" transform="rotate(-9.75359 1546.94 881.131)" fill="white"/>
</clipPath>
<clipPath id="clip6_9_49">
<rect x="1533.12" y="886.55" width="79.6317" height="3.49262" rx="1.74631" transform="rotate(-4.73405 1533.12 886.55)" fill="white"/>
</clipPath>
<clipPath id="clip7_9_49">
<rect x="1317.55" y="763.018" width="79.6317" height="3.49262" rx="1.74631" transform="rotate(65.4851 1317.55 763.018)" fill="white"/>
</clipPath>
<clipPath id="clip8_9_49">
<rect x="1305.82" y="772.466" width="79.6317" height="3.49262" rx="1.74631" transform="rotate(45.5526 1305.82 772.466)" fill="white"/>
</clipPath>
<clipPath id="clip9_9_49">
<rect x="1268.64" y="79.6832" width="79.6317" height="3.49262" rx="1.74631" transform="rotate(120.382 1268.64 79.6832)" fill="white"/>
</clipPath>
<clipPath id="clip10_9_49">
<rect x="1271.07" y="95.3663" width="79.6317" height="3.49262" rx="1.74631" transform="rotate(131.195 1271.07 95.3663)" fill="white"/>
</clipPath>
<clipPath id="clip11_9_49">
<rect x="1777.56" y="813.266" width="79.6317" height="3.49262" rx="1.74631" transform="rotate(-31.9586 1777.56 813.266)" fill="white"/>
</clipPath>
<clipPath id="clip12_9_49">
<rect x="1782.69" y="798.246" width="79.6317" height="3.49262" rx="1.74631" transform="rotate(-21.1462 1782.69 798.246)" fill="white"/>
</clipPath>
</defs>
</svg>
